# xmcd
#
# Track frame offsets:
#	150
#	18723
#	35218
#	52411
#	69846
#	85507
#	105648
#	128980
#	147533
#	170912
#
# Disc length: 2554 seconds
#
# Revision: 1
# Processed by: cddbd v1.5.2PL0 Copyright (c) Steve Scherf et al.
# Submitted via: audiograbber 1.83.01
#
DISCID=9709f80a
DTITLE=Six Men Ten Minutes Too Late - Six Men Ten Minutes Too Late
DYEAR=1997
DGENRE=Blues
TTITLE0=Down In The South
TTITLE1=Ride Like Hell
TTITLE2=Dimples
TTITLE3=Cold Shot
TTITLE4=Help Me
TTITLE5=Come On
TTITLE6=The Blues Are Taking me Higher
TTITLE7=Goodbye Train
TTITLE8=Dreamland
TTITLE9=Old Habits
EXTD=
EXTT0=
EXTT1=
EXTT2=
EXTT3=
EXTT4=
EXTT5=
EXTT6=
EXTT7=
EXTT8=
EXTT9=
PLAYORDER=
